<svg xmlns="http://www.w3.org/2000/svg" viewBox="0 0 77.32 57.49"><defs><style>.cls-1{fill:#2a3c88;}</style></defs><title>easy_capacitacao_inicial</title><g id="Camada_2" data-name="Camada 2"><g id="Camada_1-2" data-name="Camada 1"><path class="cls-1" d="M64.94,37.22a13.18,13.18,0,0,1-11.37,7c-7.46,0-13.51-6.85-13.51-15.3s6-15.31,13.51-15.31A13.25,13.25,0,0,1,65,20.85l12.08-8.56a29.18,29.18,0,0,0-53,16.45A29.18,29.18,0,0,0,77.32,44.9Z"/><path class="cls-1" d="M25.86,43.83H15.52V34.92h7A30.92,30.92,0,0,1,22.64,22H15.52V14.23H25a38.71,38.71,0,0,1,5.22-6.87A25.65,25.65,0,0,1,39.47.9l.2-.18H0V57.49H41l-.21-.32A31.39,31.39,0,0,1,25.86,43.83Z"/></g></g></svg>